<?xml version="1.0" standalone="no"?>
<!DOCTYPE svg PUBLIC "-//W3C//DTD SVG 20010904//EN"
 "http://www.w3.org/TR/2001/REC-SVG-20010904/DTD/svg10.dtd">
<svg version="1.0" xmlns="http://www.w3.org/2000/svg"
 width="348.000000pt" height="348.000000pt" viewBox="0 0 348.000000 348.000000"
 preserveAspectRatio="xMidYMid meet">
<metadata>
Created by potrace 1.14, written by Peter Selinger 2001-2017
</metadata>
<g transform="translate(0.000000,348.000000) scale(0.100000,-0.100000)"
fill="#000000" stroke="none">
<path d="M12 2898 c-9 -9 -12 -266 -12 -1097 l0 -1085 22 -23 21 -23 -21 0
c-20 0 -22 -5 -22 -50 l0 -50 1740 0 1740 0 0 50 c0 40 -3 50 -17 50 -15 0
-15 1 0 18 16 17 17 108 17 1108 0 835 -3 1093 -12 1102 -17 17 -3439 17
-3456 0z m459 -165 c171 -87 181 -322 18 -430 -31 -21 -57 -28 -106 -31 -86
-6 -140 16 -196 78 -71 79 -86 174 -43 265 63 133 199 182 327 118z m2879
-216 c0 -1 -124 -126 -275 -277 l-275 -275 0 278 0 277 275 0 c151 0 275 -1
275 -3z m10 -892 l0 -285 -280 0 -280 0 0 285 0 285 280 0 280 0 0 -285z
m-1680 153 c-29 -103 -50 -153 -50 -119 0 15 59 221 67 234 3 5 7 6 10 4 2 -3
-10 -56 -27 -119z m54 -85 c-20 -68 -32 -54 -14 15 16 56 22 70 27 55 2 -6 -4
-37 -13 -70z m85 0 c-11 -38 -27 -94 -36 -125 -9 -32 -20 -58 -25 -58 -11 0
-16 -19 43 183 11 37 24 67 29 67 5 0 0 -30 -11 -67z m74 -3 c-19 -62 -21 -65
-28 -58 -3 3 2 33 11 67 10 34 21 58 26 53 4 -4 0 -32 -9 -62z m1427 -680 l0
-240 -240 0 -240 0 0 240 0 240 240 0 240 0 0 -240z m-1550 -40 l0 -250 -820
0 -820 0 0 250 0 250 820 0 820 0 0 -250z m-1070 -340 l0 -30 -170 0 -170 0 0
30 0 30 170 0 170 0 0 -30z m2420 0 l0 -30 -170 0 -170 0 0 30 0 30 170 0 170
0 0 -30z"/>
<path d="M2850 1625 l0 -235 235 0 235 0 0 235 0 235 -235 0 -235 0 0 -235z"/>
<path d="M2860 1010 l0 -220 220 0 220 0 0 220 0 220 -220 0 -220 0 0 -220z"/>
<path d="M430 970 c0 -60 4 -100 10 -100 6 0 10 18 10 39 0 57 16 59 48 7 15
-25 33 -46 40 -46 17 0 16 3 -22 63 l-34 53 35 42 c24 29 30 42 19 42 -8 0
-31 -21 -51 -46 l-35 -47 0 47 c0 25 -4 46 -10 46 -6 0 -10 -40 -10 -100z"/>
<path d="M610 1065 c0 -3 14 -29 30 -58 20 -36 30 -67 30 -95 0 -23 5 -42 10
-42 6 0 10 18 10 40 0 25 11 63 30 100 22 43 26 60 17 60 -8 0 -22 -18 -32
-40 -10 -22 -21 -40 -25 -40 -4 0 -15 18 -25 40 -10 22 -24 40 -32 40 -7 0
-13 -2 -13 -5z"/>
<path d="M851 977 c-35 -103 -35 -107 -20 -107 5 0 15 14 20 30 9 25 16 30 44
30 29 0 34 -4 40 -30 4 -17 13 -30 22 -30 9 0 13 6 9 15 -3 8 -17 53 -32 100
-15 49 -32 85 -39 85 -8 0 -26 -39 -44 -93z m47 -25 c-29 -5 -31 2 -17 45 l13
38 11 -40 c11 -37 10 -40 -7 -43z"/>
<path d="M1066 1039 c-30 -35 -34 -84 -11 -128 24 -48 81 -56 120 -16 36 35
36 115 0 150 -35 35 -76 33 -109 -6z m87 -2 c22 -16 32 -74 18 -109 -6 -17
-21 -30 -37 -34 -38 -10 -67 23 -67 75 0 65 44 100 86 68z"/>
<path d="M1300 971 c0 -61 4 -101 10 -101 6 0 10 33 10 78 l0 77 46 -77 c24
-43 49 -78 54 -78 6 0 10 42 10 100 0 60 -4 100 -10 100 -6 0 -10 -32 -10 -77
l0 -78 -42 74 c-61 106 -68 104 -68 -18z"/>
</g>
</svg>
